<svg width="24" height="24" viewBox="0 0 24 24" fill="none" xmlns="http://www.w3.org/2000/svg">
<path d="M10.8997 19.0008C11.0975 19 11.2906 18.9405 11.4545 18.8299C11.6185 18.7194 11.746 18.5627 11.821 18.3796C11.8959 18.1966 11.9149 17.9955 11.8755 17.8017C11.8361 17.6078 11.7401 17.4301 11.5997 17.2908L6.9997 12.7108C6.90597 12.6178 6.83158 12.5072 6.78081 12.3854C6.73004 12.2635 6.7039 12.1328 6.7039 12.0008C6.7039 11.8688 6.73004 11.7381 6.78081 11.6162C6.83158 11.4944 6.90597 11.3838 6.9997 11.2908L11.5997 6.71079C11.6934 6.61783 11.7678 6.50723 11.8186 6.38537C11.8694 6.26351 11.8955 6.1328 11.8955 6.00079C11.8955 5.86878 11.8694 5.73808 11.8186 5.61622C11.7678 5.49436 11.6934 5.38376 11.5997 5.29079C11.4123 5.10454 11.1589 5 10.8947 5C10.6305 5 10.3771 5.10454 10.1897 5.29079L5.5997 9.88079C5.0379 10.4433 4.72234 11.2058 4.72234 12.0008C4.72234 12.7958 5.0379 13.5583 5.5997 14.1208L10.1897 18.7108C10.2831 18.8035 10.394 18.8768 10.5158 18.9266C10.6376 18.9763 10.7681 19.0016 10.8997 19.0008Z" fill="#121212"/>
<path d="M17.8997 19.0008C18.0975 19 18.2906 18.9405 18.4545 18.8299C18.6185 18.7194 18.746 18.5627 18.821 18.3796C18.8959 18.1966 18.9149 17.9955 18.8755 17.8017C18.8361 17.6078 18.7401 17.4301 18.5997 17.2908L13.3097 12.0008L18.5997 6.71079C18.6934 6.61783 18.7678 6.50723 18.8186 6.38537C18.8694 6.26351 18.8955 6.1328 18.8955 6.00079C18.8955 5.86878 18.8694 5.73808 18.8186 5.61622C18.7678 5.49436 18.6934 5.38376 18.5997 5.29079C18.4123 5.10454 18.1589 5 17.8947 5C17.6305 5 17.3771 5.10454 17.1897 5.29079L11.1897 11.2908C11.096 11.3838 11.0216 11.4944 10.9708 11.6162C10.92 11.7381 10.8939 11.8688 10.8939 12.0008C10.8939 12.1328 10.92 12.2635 10.9708 12.3854C11.0216 12.5072 11.096 12.6178 11.1897 12.7108L17.1897 18.7108C17.2831 18.8035 17.394 18.8768 17.5158 18.9266C17.6376 18.9763 17.7681 19.0016 17.8997 19.0008Z" fill="#121212"/>
</svg>
