<svg width="32" height="32" viewBox="0 0 32 32" fill="none" xmlns="http://www.w3.org/2000/svg">
<path d="M31.9978 16.0006C31.9978 24.0816 26.0078 30.7623 18.2265 31.8464C17.4989 31.9473 16.7545 32 15.9989 32C15.1267 32 14.2702 31.9305 13.4361 31.796C5.81839 30.5695 0 23.9638 0 16.0006C0 7.16393 7.16368 0 16 0C24.8363 0 32 7.16393 32 16.0006H31.9978Z" fill="#FFA501"/>
<path d="M18.2268 12.8482V16.3337H22.5384L21.8557 21.029H18.2268V31.8466C17.4992 31.9475 16.7548 32.0002 15.9992 32.0002C15.127 32.0002 14.2705 31.9307 13.4364 31.7962V21.029H9.45996V16.3337H13.4364V12.069C13.4364 9.42316 15.581 7.27734 18.2279 7.27734V7.27959C18.2357 7.27959 18.2425 7.27734 18.2503 7.27734H22.5396V11.338H19.7369C18.9039 11.338 18.2279 12.0141 18.2279 12.8471L18.2268 12.8482Z" fill="#3D7F58"/>
</svg>
