<svg width="40" height="40" viewBox="0 0 40 40" fill="none" xmlns="http://www.w3.org/2000/svg">
<path d="M20.044 40H19.956C8.95238 40 0 31.0476 0 20.044V19.956C0 8.95238 8.95238 0 19.956 0H20.044C31.0476 0 40 8.95238 40 19.956V20.044C40 31.0476 31.0476 40 20.044 40ZM19.956 1.35396C9.69841 1.35396 1.35396 9.69841 1.35396 19.956V20.044C1.35396 30.3016 9.69841 38.646 19.956 38.646H20.044C30.3016 38.646 38.646 30.3016 38.646 20.044V19.956C38.646 9.69841 30.3016 1.35396 20.044 1.35396H19.956Z" fill="#1877F2"/>
<path d="M22.691 15.5149V19.7244H27.8983L27.0737 25.3948H22.691V38.4591C21.8123 38.581 20.9132 38.6446 20.0007 38.6446C18.9473 38.6446 17.9129 38.5607 16.9055 38.3982V25.3948H12.103V19.7244H16.9055V14.5739C16.9055 11.3786 19.4956 8.78711 22.6923 8.78711V8.7898C22.7018 8.7898 22.7099 8.78711 22.7194 8.78711H27.8997V13.6911H24.5148C23.5088 13.6911 22.6923 14.5076 22.6923 15.5136L22.691 15.5149Z" fill="#1877F2"/>
</svg>
