<svg width="40" height="40" viewBox="0 0 40 40" fill="none" xmlns="http://www.w3.org/2000/svg">
<path d="M20 40C8.97157 40 0 31.0284 0 20C0 8.97155 8.97157 0 20 0C31.0285 0 40 8.97155 40 20C40 31.0284 31.0285 40 20 40ZM20 1.35768C9.72101 1.35768 1.35768 9.72099 1.35768 20C1.35768 30.279 9.72101 38.6423 20 38.6423C30.279 38.6423 38.6423 30.279 38.6423 20C38.6423 9.72099 30.279 1.35768 20 1.35768Z" fill="#FF0209"/>
<path d="M32.1662 15.9962C32.0142 14.5285 31.687 12.9061 30.4827 12.0534C29.55 11.3923 28.324 11.3678 27.1795 11.3692C24.7601 11.3705 22.3393 11.3732 19.9199 11.3746C17.5929 11.3773 15.2658 11.3787 12.9387 11.3814C11.9666 11.3828 11.0217 11.3067 10.1188 11.7276C9.34359 12.0887 8.7367 12.7757 8.37149 13.5401C7.86507 14.6032 7.75918 15.8074 7.69808 16.9832C7.58539 19.1243 7.59761 21.2707 7.73202 23.4105C7.83113 24.9718 8.0823 26.6974 9.28928 27.6926C10.3591 28.5737 11.8689 28.6172 13.2564 28.6185C17.6607 28.6226 22.0664 28.6267 26.4721 28.6294C27.0369 28.6307 27.6261 28.6199 28.2018 28.5574C29.3341 28.4352 30.4134 28.1108 31.1412 27.2717C31.8757 26.4259 32.0644 25.2487 32.1757 24.1341C32.4473 21.4296 32.4445 18.6993 32.1662 15.9962ZM17.3729 23.7906V16.2079L23.9387 19.9986L17.3729 23.7906Z" fill="#FF0209"/>
</svg>
