<svg width="40" height="40" viewBox="0 0 40 40" fill="none" xmlns="http://www.w3.org/2000/svg">
<path d="M20.044 40H19.956C8.95238 40 0 31.0476 0 20.044V19.956C0 8.95238 8.95238 0 19.956 0H20.044C31.0476 0 40 8.95238 40 19.956V20.044C40 31.0476 31.0476 40 20.044 40ZM19.956 1.35396C9.69841 1.35396 1.35396 9.69841 1.35396 19.956V20.044C1.35396 30.3016 9.69841 38.646 19.956 38.646H20.044C30.3016 38.646 38.646 30.3016 38.646 20.044V19.956C38.646 9.69841 30.3016 1.35396 20.044 1.35396H19.956Z" fill="url(#paint0_linear_2002_9583)"/>
<path d="M25.9797 8.53955H14.0215C10.7179 8.53955 8.03027 11.2272 8.03027 14.5308V25.4708C8.03027 28.7745 10.7179 31.4621 14.0215 31.4621H25.9797C29.2834 31.4621 31.971 28.7745 31.971 25.4708V14.5308C31.971 11.2272 29.2834 8.53955 25.9797 8.53955ZM10.1438 14.5308C10.1438 12.3929 11.8836 10.6531 14.0215 10.6531H25.9797C28.1176 10.6531 29.8574 12.3929 29.8574 14.5308V25.4708C29.8574 27.6087 28.1176 29.3486 25.9797 29.3486H14.0215C11.8836 29.3486 10.1438 27.6087 10.1438 25.4708V14.5308Z" fill="url(#paint1_linear_2002_9583)"/>
<path d="M20.0006 25.5721C23.0728 25.5721 25.5735 23.0727 25.5735 19.9992C25.5735 16.9257 23.0741 14.4263 20.0006 14.4263C16.9271 14.4263 14.4277 16.9257 14.4277 19.9992C14.4277 23.0727 16.9271 25.5721 20.0006 25.5721ZM20.0006 16.5412C21.9084 16.5412 23.46 18.0928 23.46 20.0005C23.46 21.9083 21.9084 23.4599 20.0006 23.4599C18.0929 23.4599 16.5413 21.9083 16.5413 20.0005C16.5413 18.0928 18.0929 16.5412 20.0006 16.5412Z" fill="url(#paint2_linear_2002_9583)"/>
<path d="M26.0894 15.3268C26.9167 15.3268 27.591 14.6539 27.591 13.8253C27.591 12.9966 26.918 12.3237 26.0894 12.3237C25.2608 12.3237 24.5879 12.9966 24.5879 13.8253C24.5879 14.6539 25.2608 15.3268 26.0894 15.3268Z" fill="url(#paint3_linear_2002_9583)"/>
<defs>
<linearGradient id="paint0_linear_2002_9583" x1="5.85181" y1="34.1482" x2="34.1482" y2="5.85181" gradientUnits="userSpaceOnUse">
<stop stop-color="#FAAD4F"/>
<stop offset="0.35" stop-color="#DD2A7B"/>
<stop offset="0.62" stop-color="#9537B0"/>
<stop offset="1" stop-color="#515BD4"/>
</linearGradient>
<linearGradient id="paint1_linear_2002_9583" x1="10.0409" y1="29.9592" x2="29.959" y2="10.0425" gradientUnits="userSpaceOnUse">
<stop stop-color="#FAAD4F"/>
<stop offset="0.35" stop-color="#DD2A7B"/>
<stop offset="0.62" stop-color="#9537B0"/>
<stop offset="1" stop-color="#515BD4"/>
</linearGradient>
<linearGradient id="paint2_linear_2002_9583" x1="16.062" y1="23.9392" x2="23.9379" y2="16.0619" gradientUnits="userSpaceOnUse">
<stop stop-color="#FAAD4F"/>
<stop offset="0.35" stop-color="#DD2A7B"/>
<stop offset="0.62" stop-color="#9537B0"/>
<stop offset="1" stop-color="#515BD4"/>
</linearGradient>
<linearGradient id="paint3_linear_2002_9583" x1="25.0279" y1="14.8868" x2="27.1509" y2="12.7638" gradientUnits="userSpaceOnUse">
<stop stop-color="#FAAD4F"/>
<stop offset="0.35" stop-color="#DD2A7B"/>
<stop offset="0.62" stop-color="#9537B0"/>
<stop offset="1" stop-color="#515BD4"/>
</linearGradient>
</defs>
</svg>
