<svg width="32" height="32" viewBox="0 0 32 32" fill="none" xmlns="http://www.w3.org/2000/svg">
<path d="M16.0364 0H15.9636C7.14713 0 0 7.14713 0 15.9636V16.0364C0 24.8529 7.14713 32 15.9636 32H16.0364C24.8529 32 32 24.8529 32 16.0364V15.9636C32 7.14713 24.8529 0 16.0364 0Z" fill="#FFA501"/>
<path d="M20.9515 6.51025H11.0498C8.31428 6.51025 6.08887 8.73567 6.08887 11.4712V20.5298C6.08887 23.2653 8.31428 25.4907 11.0498 25.4907H20.9515C23.687 25.4907 25.9124 23.2653 25.9124 20.5298V11.4712C25.9124 8.73567 23.687 6.51025 20.9515 6.51025ZM7.83893 11.4712C7.83893 9.70095 9.27956 8.26031 11.0498 8.26031H20.9515C22.7217 8.26031 24.1624 9.70095 24.1624 11.4712V20.5298C24.1624 22.3 22.7217 23.7407 20.9515 23.7407H11.0498C9.27956 23.7407 7.83893 22.3 7.83893 20.5298V11.4712Z" fill="#3D7F58"/>
<path d="M16.0007 20.6138C18.5446 20.6138 20.6153 18.5442 20.6153 15.9993C20.6153 13.4543 18.5457 11.3848 16.0007 11.3848C13.4558 11.3848 11.3862 13.4543 11.3862 15.9993C11.3862 18.5442 13.4558 20.6138 16.0007 20.6138ZM16.0007 13.1359C17.5804 13.1359 18.8652 14.4207 18.8652 16.0004C18.8652 17.58 17.5804 18.8648 16.0007 18.8648C14.4211 18.8648 13.1363 17.58 13.1363 16.0004C13.1363 14.4207 14.4211 13.1359 16.0007 13.1359Z" fill="#3D7F58"/>
<path d="M21.0421 12.1302C21.7271 12.1302 22.2855 11.573 22.2855 10.8869C22.2855 10.2008 21.7283 9.64355 21.0421 9.64355C20.356 9.64355 19.7988 10.2008 19.7988 10.8869C19.7988 11.573 20.356 12.1302 21.0421 12.1302Z" fill="#3D7F58"/>
</svg>
