<svg width="32" height="32" viewBox="0 0 32 32" fill="none" xmlns="http://www.w3.org/2000/svg">
<path d="M32 16C32 7.16344 24.8366 0 16 0C7.16345 0 0 7.16344 0 16C0 24.8366 7.16345 32 16 32C24.8366 32 32 24.8366 32 16Z" fill="#FFA501"/>
<path d="M26.0746 12.6842C25.9487 11.4688 25.6778 10.1253 24.6805 9.41923C23.9081 8.87169 22.8928 8.85145 21.945 8.85258C19.9415 8.85258 17.9369 8.85595 15.9334 8.85708C14.0063 8.85933 12.0793 8.86045 10.1522 8.8627C9.34719 8.8627 8.56467 8.80086 7.81701 9.1494C7.17503 9.44846 6.67246 10.0174 6.37002 10.6503C5.95066 11.5307 5.86297 12.5279 5.81237 13.5016C5.71906 15.2746 5.72917 17.0521 5.84048 18.824C5.92255 20.117 6.13055 21.546 7.13006 22.3701C8.01601 23.0998 9.26624 23.1358 10.4153 23.1369C14.0625 23.1403 17.7109 23.1436 21.3593 23.1459C21.827 23.147 22.3149 23.138 22.7917 23.0863C23.7293 22.9851 24.6231 22.7164 25.2258 22.0216C25.834 21.3211 25.9903 20.3464 26.0825 19.4233C26.3074 17.1837 26.3051 14.9227 26.0746 12.6842ZM13.8242 19.1389V12.8596L19.2613 15.9987L13.8242 19.1389Z" fill="#3D7F58"/>
</svg>
