<svg width="360" height="20" viewBox="0 0 360 20" fill="none" xmlns="http://www.w3.org/2000/svg">
<path d="M357.835 19.9927C358.019 19.9927 358.202 19.978 358.386 19.9414C359.54 19.7362 360.231 18.9377 359.929 18.1538C358.839 15.3186 357.609 12.1098 353.68 9.24526C349.363 6.10235 342.121 4.05104 335.235 4.02173C330.745 3.99975 326.773 4.78363 323.265 5.47229L294.545 11.0914C289.181 12.1391 283.094 13.3332 276.618 13.3552C266.526 13.3772 257.784 10.8277 248.534 8.1097C240.569 5.76534 232.323 3.34772 222.977 2.63708C211.094 1.73597 200.408 3.77264 190.069 5.73604C181.391 7.38442 172.422 9.0914 162.816 9.02546C154.84 8.96685 146.854 7.68478 139.126 6.43934C137.885 6.24154 136.633 6.03641 135.391 5.84593C91.6582 -1.02597 44.2014 -1.86847 1.76328 3.47227C0.586853 3.61879 -0.179504 4.3807 0.036377 5.17925C0.252228 5.9778 1.3855 6.50528 2.55115 6.35143C44.4172 1.08395 91.2589 1.91912 134.42 8.70311C135.65 8.89359 136.892 9.09872 138.122 9.29653C146.076 10.5786 154.301 11.9046 162.762 11.9632C173.005 12.0292 182.255 10.2709 191.224 8.56391C201.617 6.58586 211.439 4.71771 222.48 5.55289C231.19 6.21224 239.134 8.54928 246.808 10.8057C256.057 13.5237 265.631 16.3516 276.629 16.293C283.709 16.2637 290.098 15.0182 295.732 13.912L324.452 8.29285C327.69 7.6628 331.317 6.93754 335.202 6.95951C341.754 6.98882 347.603 9.13536 350.507 11.2526C353.691 13.575 354.727 16.2783 355.731 18.9011C355.979 19.5604 356.864 20 357.814 20L357.835 19.9927Z" fill="#8D5713"/>
</svg>
