<svg width="24" height="24" viewBox="0 0 24 24" fill="none" xmlns="http://www.w3.org/2000/svg">
<path d="M24 4.09099V20.188L12 23.52L0 20.188V4.09099C0 3.31999 0.339 2.59499 0.931 2.10199C0.952 2.08399 0.978 2.07299 1 2.05599V19.428L12 22.481L23 19.428V2.05599C23.022 2.07299 23.047 2.08399 23.069 2.10199C23.661 2.59599 24 3.32099 24 4.09099ZM12 20.52L3 17.948V3.00099C3 2.20899 3.363 1.48199 3.995 1.00499C4.628 0.527993 5.427 0.380993 6.187 0.596993L10.376 1.79399C11.055 1.98799 11.623 2.41799 12 2.97899C12.377 2.41799 12.945 1.98799 13.624 1.79399L17.813 0.596993C18.573 0.379993 19.373 0.527993 20.005 1.00499C20.637 1.48199 21 2.20999 21 3.00099V17.948L12 20.52ZM12.5 19.337L20 17.194V3.00099C20 2.52599 19.782 2.08899 19.403 1.80299C19.138 1.60399 18.824 1.49999 18.504 1.49999C18.365 1.49999 18.226 1.51999 18.088 1.55899L13.898 2.75599C13.075 2.99099 12.5 3.75399 12.5 4.60999V19.337ZM11.5 4.60999C11.5 3.75299 10.925 2.98999 10.102 2.75599L5.913 1.55899C5.456 1.42799 4.978 1.51699 4.598 1.80299C4.219 2.08899 4.001 2.52599 4.001 3.00099V17.194L11.501 19.337V4.60999H11.5Z" fill="#008AFF"/>
</svg>
